/vscmnt/brussel_pixiu_data/_data_brussel/112/vsc11236/PredSimResults/SUBJ06mtu3D/worker9.mot
version=1
nRows=7
nColumns=50
inDegrees=yes
endheader
                time	         pelvis_tilt	         pelvis_list	     pelvis_rotation	           pelvis_tx	           pelvis_ty	           pelvis_tz	       hip_flexion_r	     hip_adduction_r	      hip_rotation_r	        knee_angle_r	       ankle_angle_r	         mtp_angle_r	       hip_flexion_l	     hip_adduction_l	      hip_rotation_l	        knee_angle_l	       ankle_angle_l	         mtp_angle_l	    lumbar_extension	      lumbar_bending	     lumbar_rotation	 ercspn_r/activation	 intobl_r/activation	 extobl_r/activation	    abd_r/activation	    add_r/activation	hamstrings_r/activation	bifemsh_r/activation	glut_max_r/activation	iliopsoas_r/activation	rect_fem_r/activation	  vasti_r/activation	gastroc_r/activation	 soleus_r/activation	tib_ant_r/activation	 ercspn_l/activation	 intobl_l/activation	 extobl_l/activation	    abd_l/activation	    add_l/activation	hamstrings_l/activation	bifemsh_l/activation	glut_max_l/activation	iliopsoas_l/activation	rect_fem_l/activation	  vasti_l/activation	gastroc_l/activation	 soleus_l/activation	tib_ant_l/activation	
          0.00000000	         -6.54115680	         -0.65817027	          4.53174009	          0.00000000	          0.93230207	         -0.01061949	         30.93129176	         -0.70697930	         -3.37626283	         -5.53856586	          1.02195325	          0.23297414	        -11.65292502	          0.27570489	         -1.22580053	         -7.96522030	          5.56102081	         35.19594484	         -5.70748921	         -0.88476512	         -1.53281405	          0.15633166	          0.13792604	          0.00999999	          0.00999999	          0.27326003	          0.16541106	          0.20440980	          0.04918666	          0.14574490	          0.01000001	          0.00999999	          0.02125917	          0.00999999	          0.39982582	          0.12408890	          0.00999999	          0.00999999	          0.06589715	          0.01000002	          0.01000010	          0.14499500	          0.04519528	          0.50596558	          0.02567040	          0.01000000	          0.36734121	          0.30602124	          0.02125917	
          0.01244993	         -6.61613368	         -0.58903511	          4.53921324	          0.01680170	          0.93055177	         -0.00979104	         31.07974933	         -0.57488080	         -3.03903237	         -7.45553954	          0.67022851	          0.19844944	        -11.94961867	          0.23405242	         -1.67386068	         -9.09806031	          4.67230115	         37.02952570	         -5.40530573	         -0.61525460	         -1.94805518	          0.12946735	          0.11422460	          0.00999999	          0.00999999	          0.22630254	          0.15349293	          0.16928365	          0.08900200	          0.12069984	          0.00999999	          0.00999999	          0.01760596	          0.01207498	          0.44247215	          0.12412212	          0.00999999	          0.00999999	          0.05457327	          0.01207497	          0.01513611	          0.12007880	          0.03742884	          0.48712759	          0.02125915	          0.01804656	          0.33756654	          0.29080454	          0.01760596	
          0.02489985	         -6.67185542	         -0.54215341	          4.51460510	          0.03395340	          0.92907087	         -0.00884785	         31.01750284	         -0.45894887	         -2.72956448	         -9.10639948	          0.31339501	          0.19059882	        -12.06547710	          0.15017300	         -2.13693070	        -10.60482814	          3.65385398	         38.90067369	         -5.08807569	         -0.32135422	         -2.34717136	          0.14713633	          0.09459604	          0.00999999	          0.06560964	          0.21633337	          0.13932857	          0.14019365	          0.11428620	          0.09995856	          0.00999999	          0.00999999	          0.01458052	          0.01000000	          0.52888861	          0.11526168	          0.00999999	          0.00999999	          0.04519530	          0.01000000	          0.01253520	          0.09944424	          0.03099700	          0.47698903	          0.01760595	          0.01760596	          0.29566269	          0.27054588	          0.01458052	
          0.03734978	         -6.70796582	         -0.49127138	          4.45636174	          0.05123106	          0.92796405	         -0.00778913	         30.83666482	         -0.34690324	         -2.51934358	        -10.55650285	         -0.19829968	          0.16866512	        -11.93039758	          0.04813489	         -2.62128760	        -12.58298343	          2.48076792	         40.76012649	         -4.78465133	         -0.03220662	         -2.72070189	          0.15615842	          0.07834049	          0.00999999	          0.11526664	          0.27009890	          0.12562813	          0.11610252	          0.14681030	          0.08278150	          0.00999999	          0.00999999	          0.01207498	          0.00999999	          0.57762327	          0.14324444	          0.00999999	          0.00999999	          0.03742886	          0.01000002	          0.01909386	          0.08235556	          0.02567042	          0.45296383	          0.01458051	          0.01458052	          0.24485548	          0.24642952	          0.01207498	
          0.04979970	         -6.72300744	         -0.44915827	          4.37182767	          0.06845808	          0.92731170	         -0.00663741	         30.61912675	         -0.22386991	         -2.37425500	        -12.00793817	         -0.50669584	          0.13599337	        -11.48438151	         -0.09326111	         -3.12824271	        -15.11392798	          1.14897019	         42.48619344	         -4.51058433	          0.26733681	         -3.06688070	          0.15814741	          0.06487831	          0.00999999	          0.15989501	          0.28512404	          0.11374457	          0.09615125	          0.18082991	          0.06855618	          0.00999999	          0.03516760	          0.00999999	          0.00999999	          0.60543670	          0.17607938	          0.00999999	          0.00999999	          0.03099701	          0.07567438	          0.02868419	          0.06820344	          0.02125917	          0.41329153	          0.01207497	          0.01207498	          0.20277908	          0.20956804	          0.00999999	
          0.06224963	         -6.71794680	         -0.42640812	          4.26525972	          0.08545939	          0.92723132	         -0.00541672	         30.39011716	         -0.07777835	         -2.25757590	        -13.51157614	         -0.44434920	          0.10239488	        -10.68912565	         -0.29244344	         -3.66976768	        -18.22959628	         -0.33198841	         43.81178781	         -4.27835217	          0.58824935	         -3.38420447	          0.15758811	          0.05372951	          0.00999999	          0.18915235	          0.28596587	          0.10217719	          0.07962845	          0.18793341	          0.05677536	          0.00999999	          0.07328219	          0.00999999	          0.00999999	          0.59230706	          0.20283855	          0.00999999	          0.00999999	          0.02567043	          0.14571570	          0.05003214	          0.05648324	          0.01760596	          0.35699483	          0.00999999	          0.00999999	          0.16793315	          0.17355549	          0.00999999	
          0.07469956	         -6.69529763	         -0.42347289	          4.14084583	          0.10213117	          0.92779673	         -0.00415636	         30.11245893	          0.09633030	         -2.13437934	        -14.99433082	          0.05720561	          0.09682135	         -9.54803275	         -0.55927164	         -4.26659731	        -21.90234051	         -1.86399133	         44.25832152	         -4.09185255	          0.92966784	         -3.67266100	          0.15272376	          0.04449653	          0.00999999	          0.20920146	          0.24932142	          0.09352850	          0.06594496	          0.17048666	          0.04701898	          0.00999999	          0.13191421	          0.00999999	          0.00999999	          0.51033225	          0.21916089	          0.00999999	          0.00999999	          0.02125918	          0.18331214	          0.04143468	          0.04677707	          0.01458052	          0.29564819	          0.00999999	          0.00999999	          0.13907522	          0.14373140	          0.00999999	
